# xmcd CD database file
#
# Track frame offsets:
#	150
#	17069
#	31507
#	46965
#	56570
#	70390
#	80725
#	94164
#	106638
#	119364
#	130872
#	144784
#	160514
#	177732
#	189275
#	202699
#	215865
#	229644
#	245310
#	257312
#
# Disc length: 3735 seconds
#
# Revision: 0
# Processed by: cddbd v1.4PL0 Copyright (c) Steve Scherf et al.
# Submitted via: CDex 1.40Beta9
#
DISCID=010e9514
DTITLE=Varios Artistas - Sertanejo - Malícia Bom de Dança
DYEAR=1900
DGENRE=Country
TTITLE0=Gino e Geno - Lorota
TTITLE1=Rodrigo e Thiago - A perereca
TTITLE2=Silvio e Robson - A coisa
TTITLE3=Teodoro e Sampaio - Quem tem ... tem medo
TTITLE4=Felipe e Falcão - O meu táxi é um cacete
TTITLE5=Sandro e Gustavo - O negócio da minha mulher
TTITLE6=André e Adriano - Água de Côco
TTITLE7=Ataíde e Alexandre - Comer comer
TTITLE8=Sandro e Gustavo - A garagem da vizinha
TTITLE9=Fábio e Fernando - Chupa chupa
TTITLE10=Felipe e Falcão - Quem quer verdura
TTITLE11=Dalvan - Põe e tira
TTITLE12=Cajú e Castanha - Mulher de amigo meu
TTITLE13=Felipe e Falcão - Folha de urtiga
TTITLE14=Neo Pi Neo - O gambá
TTITLE15=Manhoso - Eva e Adão
TTITLE16=Rossicléa - Socar alho
TTITLE17=Adamastor Pitaco - Tumim
TTITLE18=Toni Armado - Veneno no jiló
TTITLE19=Silvano Júnior - Eu quero me casar
EXTD=ID3G: 2
EXTT0=
EXTT1=
EXTT2=
EXTT3=
EXTT4=
EXTT5=
EXTT6=
EXTT7=
EXTT8=
EXTT9=
EXTT10=
EXTT11=
EXTT12=
EXTT13=
EXTT14=
EXTT15=
EXTT16=
EXTT17=
EXTT18=
EXTT19=
PLAYORDER=
